<svg width="28" height="25" viewBox="0 0 28 25" fill="none" xmlns="http://www.w3.org/2000/svg">
<path d="M21.5064 19.2746H10.5683L9.89227 16.5704H24.1869L27.2521 4.30949H6.82706L5.7497 0H0V1.60526H4.49632L8.92967 19.3387C7.63908 19.6158 6.66849 20.7651 6.66849 22.1373C6.66849 23.7158 7.95269 25 9.53123 25C11.1098 25 12.394 23.7157 12.394 22.1373C12.394 21.6864 12.2889 21.2597 12.1023 20.8798H18.9354C18.7488 21.2597 18.6437 21.6864 18.6437 22.1373C18.6437 23.7158 19.9279 25 21.5064 25C23.0849 25 24.3692 23.7157 24.3692 22.1373C24.3691 20.5588 23.0849 19.2746 21.5064 19.2746ZM7.22833 5.91475H25.196L22.9334 14.9651H9.49094L7.22833 5.91475ZM9.53123 23.3947C8.83785 23.3947 8.27376 22.8306 8.27376 22.1373C8.27376 21.4439 8.83785 20.8798 9.53123 20.8798C10.2246 20.8798 10.7887 21.4439 10.7887 22.1373C10.7887 22.8306 10.2246 23.3947 9.53123 23.3947ZM21.5064 23.3947C20.813 23.3947 20.2489 22.8306 20.2489 22.1373C20.2489 21.4439 20.813 20.8798 21.5064 20.8798C22.1998 20.8798 22.7639 21.4439 22.7639 22.1373C22.7638 22.8306 22.1997 23.3947 21.5064 23.3947Z" fill="white"/>
</svg>
