<svg width="35" height="27" viewBox="0 0 35 27" fill="none" xmlns="http://www.w3.org/2000/svg">
<path d="M27.101 8.82373H24.9934L24.5664 13.7273H27.1008C28.6033 13.7273 29.2809 14.5057 29.9982 15.33C30.6782 16.1112 31.4488 16.9965 32.9069 16.9965H33.3551L33.3949 16.5519C33.4442 15.9779 33.4759 15.4946 33.4759 15.1987C33.4759 11.6835 30.6162 8.82373 27.101 8.82373Z" stroke="white" stroke-width="1.5"/>
<path d="M25.6297 1.46573C25.6301 1.47233 25.6307 1.47881 25.6308 1.48541L25.6311 1.49031C25.6311 1.50038 25.6302 1.51026 25.6296 1.52019C25.6293 1.52438 25.6295 1.5285 25.6291 1.53281L25.6287 1.53778L25.6283 1.54164L24.3213 16.5486L24.3209 16.5521C24.3201 16.5603 24.3186 16.5683 24.3175 16.5764C24.3163 16.5842 24.3154 16.5921 24.3139 16.5998C24.3124 16.6077 24.3103 16.6154 24.3084 16.6232C24.3065 16.6309 24.3047 16.6387 24.3025 16.6462C24.3004 16.6534 24.2978 16.6604 24.2954 16.6674C24.2926 16.6753 24.2899 16.6832 24.2867 16.691C24.2841 16.6974 24.2812 16.7037 24.2783 16.71C24.2746 16.7179 24.271 16.7258 24.2669 16.7335C24.2639 16.7394 24.2605 16.7451 24.2572 16.7509C24.2528 16.7586 24.2482 16.7662 24.2434 16.7736C24.2398 16.7791 24.2361 16.7845 24.2322 16.7898C24.2271 16.7969 24.2219 16.8039 24.2165 16.8108C24.2123 16.816 24.208 16.8211 24.2036 16.8262C24.198 16.8327 24.1923 16.839 24.1864 16.8451C24.1816 16.8502 24.1766 16.8551 24.1716 16.8599C24.1658 16.8655 24.1597 16.871 24.1535 16.8764C24.148 16.8812 24.1424 16.8859 24.1368 16.8903C24.1305 16.8952 24.1242 16.8999 24.1178 16.9045C24.1117 16.9089 24.1057 16.9131 24.0993 16.9173C24.0928 16.9215 24.0861 16.9254 24.0794 16.9294L24.0763 16.9312C24.0708 16.9344 24.0653 16.9376 24.0596 16.9405C24.0526 16.9442 24.0453 16.9475 24.0381 16.9509C24.0314 16.954 24.0247 16.9571 24.0179 16.96C24.01 16.9632 24.0017 16.966 23.9935 16.9689C23.9871 16.9712 23.9809 16.9736 23.9744 16.9755C23.9648 16.9784 23.955 16.9807 23.9452 16.983C23.9399 16.9843 23.9346 16.9858 23.9291 16.9869C23.9166 16.9894 23.9038 16.9912 23.891 16.9927C23.888 16.9931 23.8851 16.9938 23.8821 16.994C23.866 16.9956 23.849 16.9965 23.8326 16.9965H5.80321C5.53279 16.9965 5.31362 16.7777 5.3129 16.5074L5.31055 16.5062L5.31532 16.4567L5.31545 16.4554L5.7211 12.0826L6.34224 5.8711L6.77005 1.44304L6.77037 1.44075C6.77077 1.43676 6.77162 1.43297 6.77207 1.42898C6.77371 1.4165 6.77534 1.40401 6.77783 1.39172L6.77907 1.38688C6.82739 1.16209 7.02792 1 7.25827 1H15.1043H18.1766H25.1323H25.1338H25.1405C25.1466 1 25.1525 1.00072 25.1586 1.00092C25.1667 1.00124 25.1747 1.00111 25.1829 1.00183L25.1867 1.00235C25.1945 1.00315 25.2021 1.00434 25.2098 1.00554L25.2132 1.00608C25.2208 1.00726 25.2285 1.00811 25.2358 1.00955C25.2437 1.01105 25.2514 1.01327 25.2591 1.01517C25.2674 1.01733 25.2758 1.01916 25.2839 1.02158C25.2895 1.02328 25.2948 1.0255 25.3003 1.0274L25.3049 1.02897C25.3134 1.03189 25.3219 1.03481 25.3301 1.03825C25.333 1.03949 25.3358 1.041 25.3388 1.04237C25.3507 1.0476 25.3624 1.05303 25.3737 1.05917L25.3757 1.06041C25.4306 1.09049 25.4789 1.13057 25.5183 1.17824C25.5197 1.17987 25.5208 1.1817 25.5222 1.18334C25.5306 1.19373 25.5388 1.20433 25.5462 1.21538C25.549 1.21936 25.5513 1.22355 25.5539 1.22767L25.5555 1.23029C25.5607 1.23843 25.5659 1.24656 25.5705 1.25506C25.5739 1.26121 25.5768 1.26768 25.5799 1.27402C25.5837 1.28174 25.5878 1.28932 25.5912 1.2973C25.5945 1.30489 25.5972 1.31273 25.6 1.32051C25.6026 1.32757 25.6055 1.3345 25.6078 1.3417C25.6106 1.35013 25.6126 1.35889 25.6148 1.36759C25.6166 1.37439 25.6187 1.38119 25.6202 1.38812C25.6221 1.39714 25.6232 1.4063 25.6247 1.41552C25.6258 1.42245 25.627 1.42925 25.6278 1.43624C25.6289 1.44592 25.6293 1.45586 25.6297 1.46573Z" stroke="white" stroke-width="1.5"/>
<path d="M33.3949 16.5581L33.3564 16.9858C33.3702 16.8392 33.383 16.6963 33.3949 16.5587C33.3949 16.5588 33.3948 16.5589 33.3948 16.559C33.3949 16.5587 33.3949 16.5584 33.3949 16.5581Z" stroke="white" stroke-width="1.5"/>
<path d="M7.93736 22.2273H7.1755H5.29722C5.29696 22.2273 5.2967 22.2274 5.2965 22.2274C5.28068 22.2274 5.26472 22.2266 5.24864 22.225C5.24831 22.2249 5.24805 22.2249 5.24772 22.2249C5.23314 22.2234 5.21882 22.2211 5.20457 22.2185C5.20268 22.2181 5.20065 22.2179 5.19869 22.2175C5.18371 22.2145 5.16907 22.2107 5.15455 22.2064C5.15338 22.206 5.15226 22.2058 5.15109 22.2054C5.13834 22.2015 5.12598 22.1968 5.11369 22.1919C5.11094 22.1907 5.10806 22.19 5.10538 22.1888C5.09649 22.185 5.08793 22.1805 5.07923 22.1762C5.03745 22.1557 4.99927 22.1294 4.96546 22.0984C4.95997 22.0933 4.95428 22.0887 4.94905 22.0834C4.94807 22.0825 4.94729 22.0814 4.9463 22.0804C4.89374 22.0269 4.85346 21.9614 4.82973 21.8885C4.8292 21.8867 4.82842 21.8849 4.82783 21.8832C4.82587 21.8768 4.82449 21.8702 4.82279 21.8638C4.82031 21.8545 4.81763 21.8454 4.81573 21.836C4.81501 21.8324 4.81469 21.8287 4.81403 21.825C4.81174 21.8126 4.80959 21.8002 4.80828 21.7875C4.80782 21.7835 4.80795 21.7794 4.80756 21.7755C4.80664 21.7631 4.80573 21.7506 4.80573 21.738C4.80573 21.7377 4.80566 21.7373 4.80566 21.7368C4.80566 21.7277 4.80658 21.7189 4.80704 21.7098C4.80743 21.703 4.80736 21.6963 4.80802 21.6895L4.80821 21.6877C4.80828 21.6871 4.80834 21.6865 4.80841 21.6859L5.3103 16.5059L5.31265 16.5072C5.31337 16.7773 5.53254 16.9962 5.80296 16.9962H23.8323C23.8325 16.9962 23.8327 16.9963 23.833 16.9963C23.8494 16.9963 23.8657 16.9953 23.8818 16.9938C23.8848 16.9935 23.8877 16.9928 23.8907 16.9925C23.9035 16.9909 23.9163 16.9891 23.9288 16.9866C23.9343 16.9855 23.9396 16.984 23.9449 16.9827C23.9547 16.9804 23.9645 16.9781 23.9741 16.9753C23.9806 16.9732 23.9868 16.9709 23.9932 16.9687C24.0014 16.9658 24.0096 16.963 24.0176 16.9597C24.0245 16.9569 24.0311 16.9537 24.0378 16.9506C24.045 16.9473 24.0523 16.944 24.0593 16.9403C24.066 16.9367 24.0725 16.933 24.0791 16.9292C24.0858 16.9252 24.0925 16.9212 24.099 16.917C24.1053 16.9129 24.1114 16.9086 24.1175 16.9043C24.1239 16.8996 24.1302 16.895 24.1365 16.8901C24.1421 16.8856 24.1477 16.8809 24.1532 16.8761C24.1593 16.8708 24.1654 16.8653 24.1713 16.8596C24.1764 16.8548 24.1813 16.8499 24.1861 16.8449C24.192 16.8387 24.1977 16.8325 24.2033 16.826C24.2077 16.8209 24.212 16.8158 24.2162 16.8106C24.2216 16.8038 24.2268 16.7966 24.2319 16.7895C24.2357 16.7842 24.2395 16.7788 24.2431 16.7734C24.2479 16.7659 24.2525 16.7583 24.2569 16.7507C24.2601 16.7448 24.2635 16.7392 24.2666 16.7332C24.2707 16.7256 24.2743 16.7176 24.278 16.7097C24.2809 16.7034 24.2838 16.6972 24.2864 16.6907C24.2896 16.683 24.2923 16.6751 24.2951 16.6672C24.2975 16.6602 24.3001 16.6531 24.3022 16.646C24.3044 16.6384 24.3062 16.6306 24.3081 16.6229C24.31 16.6151 24.3121 16.6074 24.3136 16.5995C24.3152 16.5918 24.316 16.5839 24.3172 16.5762C24.3184 16.568 24.3198 16.5601 24.3205 16.5518C24.3207 16.5507 24.3209 16.5495 24.321 16.5484L24.5668 13.7271H27.1012C28.6036 13.7271 29.2812 14.5056 29.9986 15.3298C30.6785 16.1109 31.4491 16.9963 32.9073 16.9963L33.3553 16.9962C33.1708 18.972 32.8378 21.6428 32.8185 21.7976C32.8176 21.8043 32.8162 21.8107 32.8151 21.8174C32.8138 21.825 32.8127 21.8325 32.8111 21.8399C32.8093 21.8483 32.807 21.8564 32.8048 21.8645C32.8029 21.8714 32.8014 21.8783 32.7992 21.8851C32.7959 21.8957 32.7919 21.9058 32.788 21.9159C32.7863 21.92 32.785 21.9242 32.7833 21.9284C32.7773 21.9428 32.7705 21.9567 32.7631 21.9703C32.7627 21.9712 32.7622 21.9719 32.7617 21.9727C32.7547 21.9853 32.7472 21.9977 32.7392 22.0096C32.7371 22.0128 32.7346 22.0158 32.7324 22.019C32.7259 22.0283 32.7193 22.0374 32.7122 22.0461C32.7088 22.0502 32.7052 22.0541 32.7018 22.0581C32.6953 22.0655 32.6889 22.0729 32.682 22.0797C32.6777 22.0842 32.6731 22.0884 32.6686 22.0926C32.6622 22.0986 32.6559 22.1046 32.6491 22.1103C32.6439 22.1148 32.6385 22.1189 32.6331 22.1232C32.6267 22.1282 32.6203 22.1331 32.6136 22.1377C32.6078 22.142 32.6016 22.1459 32.5955 22.1499C32.5889 22.1541 32.5822 22.1582 32.5755 22.162C32.5691 22.1658 32.5626 22.1693 32.556 22.1726C32.549 22.1763 32.5418 22.1796 32.5346 22.183C32.528 22.186 32.5215 22.1889 32.5147 22.1916C32.5068 22.1948 32.4988 22.1977 32.4907 22.2004C32.4844 22.2026 32.4782 22.2049 32.4718 22.2067C32.4623 22.2096 32.4527 22.2119 32.4431 22.2141C32.4378 22.2153 32.4326 22.2167 32.4272 22.2178C32.4148 22.2203 32.4021 22.2221 32.3894 22.2236C32.3865 22.224 32.3838 22.2245 32.3809 22.2248C32.3649 22.2264 32.3488 22.2274 32.3325 22.2274C32.3322 22.2274 32.3318 22.2273 32.3314 22.2273H30.4902H29.6841M14.4169 22.2273H23.2006" stroke="white" stroke-width="1.5"/>
<path d="M11.1812 25.9998C9.37861 25.9998 7.91211 24.5333 7.91211 22.7306C7.91211 20.9281 9.37861 19.4614 11.1812 19.4614C12.9839 19.4614 14.4505 20.9281 14.4505 22.7306C14.4505 24.5333 12.9839 25.9998 11.1812 25.9998Z" stroke="white" stroke-width="1.5"/>
<path d="M26.4478 25.9998C24.6452 25.9998 23.1787 24.5333 23.1787 22.7306C23.1787 20.9281 24.6452 19.4614 26.4478 19.4614C28.2505 19.4614 29.7171 20.9281 29.7171 22.7306C29.7171 24.5333 28.2505 25.9998 26.4478 25.9998Z" stroke="white" stroke-width="1.5"/>
<line x1="2.7373" y1="5.21875" x2="10.1814" y2="5.21875" stroke="white" stroke-width="1.5" stroke-linecap="round" stroke-linejoin="round"/>
<line x1="1.74414" y1="9.19434" x2="9.18828" y2="9.19434" stroke="white" stroke-width="1.5" stroke-linecap="round" stroke-linejoin="round"/>
<line x1="0.75" y1="13.1694" x2="8.19414" y2="13.1694" stroke="white" stroke-width="1.5" stroke-linecap="round" stroke-linejoin="round"/>
</svg>
