<svg width="25" height="25" viewBox="0 0 25 25" fill="none" xmlns="http://www.w3.org/2000/svg">
<path d="M12.5665 6.25176L11.9543 5.51613L11.4319 4.88836C10.8527 4.22322 10.1721 3.67589 9.42711 3.29541L12.5665 6.25176ZM12.5665 6.25176L13.1345 5.48144M12.5665 6.25176L13.1345 5.48144M13.1345 5.48144L13.5832 4.87275C14.1585 4.21493 14.8348 3.6729 15.5724 3.29722L15.5736 3.2966M13.1345 5.48144L15.5736 3.2966M2.58971 4.54283L2.58938 4.54316C2.02065 5.11119 1.56141 5.78814 1.24312 6.53976L2.58971 4.54283ZM2.58971 4.54283C3.15816 3.97438 3.83533 3.5144 4.58664 3.19625L2.58971 4.54283ZM23.7566 6.54085L23.756 6.53953C23.439 5.78915 22.9777 5.11173 22.4092 4.5425C21.8407 3.97409 21.1644 3.51434 20.4136 3.19634L23.7566 6.54085ZM23.7566 6.54085C24.0746 7.28965 24.25 8.11579 24.25 8.98438C24.25 9.85255 24.074 10.6789 23.7563 11.4284L23.756 11.4292C23.4387 12.1802 22.9789 12.8572 22.4098 13.4256L22.4092 13.4262M23.7566 6.54085L22.4092 13.4262M22.4092 13.4262C22.1117 13.7241 19.733 15.8897 17.2999 18.0451C16.0888 19.118 14.8746 20.1792 13.9125 20.993C13.4308 21.4004 13.0172 21.7417 12.7008 21.9903C12.6274 22.048 12.5604 22.0997 12.5 22.1454C12.4396 22.0997 12.3726 22.048 12.2992 21.9903C11.9828 21.7417 11.5691 21.4004 11.0875 20.993C10.1254 20.1792 8.91113 19.118 7.69996 18.045C5.267 15.8898 2.88775 13.724 2.58971 13.4259C2.02125 12.8575 1.56127 12.1803 1.24312 11.429L22.4092 13.4262ZM15.5736 3.2966C16.3186 2.91545 17.1273 2.70312 17.9688 2.70312C18.8368 2.70312 19.6626 2.8791 20.4135 3.1963L15.5736 3.2966ZM7.03125 2.70312C7.87355 2.70312 8.68238 2.91548 9.42687 3.29529L4.58695 3.19611C5.33676 2.8791 6.16245 2.70312 7.03125 2.70312ZM0.75 8.98438C0.75 8.11631 0.925989 7.28984 1.24299 6.54007V11.4287C0.925989 10.6789 0.75 9.85244 0.75 8.98438Z" stroke="white" stroke-width="1.5"/>
</svg>
