<svg width="18" height="12" viewBox="0 0 18 12" fill="none" xmlns="http://www.w3.org/2000/svg">
<path d="M1.39163 0.708934L7.73111 5.60009C8.01858 5.82163 8.41472 5.92009 8.79949 5.90163C9.18362 5.92009 9.57976 5.82224 9.86723 5.60009L16.2067 0.708934C16.7147 0.31939 16.5997 0 15.9553 0H1.64498C0.999914 0 0.884926 0.31939 1.39163 0.708934Z" fill="#919191"/>
<path d="M16.665 1.99923L9.73731 7.12239C9.47827 7.31193 9.13899 7.40424 8.80098 7.39993C8.46233 7.40424 8.12306 7.31131 7.86402 7.12239L0.935064 1.99923C0.420779 1.61953 0 1.82323 0 2.45154V10.8572C0 11.4855 0.528185 12 1.17325 12H16.4268C17.0719 12 17.6001 11.4855 17.6001 10.8572V2.45154C17.6001 1.82323 17.1793 1.61953 16.665 1.99923Z" fill="#919191"/>
</svg>
