<svg width="24" height="24" viewBox="0 0 24 24" fill="none" xmlns="http://www.w3.org/2000/svg">
<path fill-rule="evenodd" clip-rule="evenodd" d="M0 2C0 0.89543 0.895431 0 2 0H22C23.1046 0 24 0.895431 24 2V22C24 23.1046 23.1046 24 22 24H2C0.89543 24 0 23.1046 0 22V2ZM21 5.09985C21 5.92828 20.3284 6.59985 19.5 6.59985C18.6716 6.59985 18 5.92828 18 5.09985C18 4.27143 18.6716 3.59985 19.5 3.59985C20.3284 3.59985 21 4.27143 21 5.09985ZM12 18.0004C15.3137 18.0004 18 15.3141 18 12.0004C18 8.68666 15.3137 6.00037 12 6.00037C8.68629 6.00037 6 8.68666 6 12.0004C6 15.3141 8.68629 18.0004 12 18.0004Z" fill="white"/>
</svg>
